<svg xmlns="http://www.w3.org/2000/svg" version="1.1" xmlns:xlink="http://www.w3.org/1999/xlink" xmlns:svgjs="http://svgjs.dev/svgjs" width="1500" height="878" viewBox="0 0 1500 878"><g transform="matrix(1,0,0,1,-0.9090909090909918,-3.275965048566377)"><svg viewBox="0 0 396 232" data-background-color="#6936f5" preserveAspectRatio="xMidYMid meet" height="878" width="1500" xmlns="http://www.w3.org/2000/svg" xmlns:xlink="http://www.w3.org/1999/xlink"><g id="tight-bounds" transform="matrix(1,0,0,1,0.2400000000000091,0.8667029531086428)"><svg viewBox="0 0 395.52 231.3570251526561" height="231.3570251526561" width="395.52"><g><svg viewBox="0 0 397.4975999999999 232.51381027841933" height="231.3570251526561" width="395.52"><g><rect width="397.4975999999999" height="4.0425087015459" x="0" y="125.44315153040874" fill="#ffffff" opacity="1" stroke-width="0" stroke="transparent" fill-opacity="1" class="rect-qz-0" data-fill-palette-color="primary" rx="1%" id="qz-0" data-palette-color="#ffffff"></rect></g><g><rect width="397.4975999999999" height="4.0425087015459" x="0" y="134.77690198790478" fill="#ffffff" opacity="1" stroke-width="0" stroke="transparent" fill-opacity="1" class="rect-qz-1" data-fill-palette-color="primary" rx="1%" id="qz-1" data-palette-color="#ffffff"></rect></g><g transform="matrix(1,0,0,1,0.9887999999999693,149.40189420135093)"><svg viewBox="0 0 395.52 83.11191607706836" height="83.11191607706836" width="395.52"><g id="textblocktransform"><svg viewBox="0 0 395.52 83.11191607706836" height="83.11191607706836" width="395.52" id="textblock"><g><svg viewBox="0 0 395.52 44.826596146581025" height="44.826596146581025" width="395.52"><g transform="matrix(1,0,0,1,0,0)"><svg width="395.52" viewBox="1.4 -34.6 397.02000000000004 45" height="44.826596146581025" data-palette-color="#ffffff"><path d="M4.8-10.7L4.8-10.7 4.8-16.6Q3.55-16.65 2.8-17.03 2.05-17.4 1.73-18 1.4-18.6 1.4-19.5L1.4-19.5Q1.4-22.35 4.85-22.6L4.85-22.6 4.85-27.25Q4.85-29.15 7.6-30.68 10.35-32.2 13.05-32.2L13.05-32.2Q14.7-32.2 15.2-31.25 15.7-30.3 15.7-28.4L15.7-28.4 15.75-22.65 17.1-22.65Q19.85-22.65 20.88-21.93 21.9-21.2 21.9-19.3L21.9-19.3Q21.9-18.5 21.6-17.95 21.3-17.4 20.63-17.1 19.95-16.8 19-16.68 18.05-16.55 16.65-16.55L16.65-16.55 15.75-16.55 15.75-11.05Q15.75-10.25 15.83-9.73 15.9-9.2 16.05-8.9 16.2-8.6 16.48-8.5 16.75-8.4 17.15-8.4L17.15-8.4Q17.75-8.4 18.15-8.83 18.55-9.25 18.78-9.78 19-10.3 19.38-10.73 19.75-11.15 20.25-11.15L20.25-11.15Q21.4-11.15 22.03-10.6 22.65-10.05 22.65-9.25L22.65-9.25Q22.65-7.9 22.13-6.35 21.6-4.8 20.6-3.35 19.6-1.9 17.82-0.95 16.05 0 13.85 0L13.85 0Q8.9 0 6.85-2.5 4.8-5 4.8-10.7ZM35.55 0.3L35.55 0.3Q31.6 0.3 29-2.93 26.4-6.15 26.4-11.75L26.4-11.75Q26.4-17.45 28.97-20.83 31.55-24.2 35.55-24.2L35.55-24.2Q39.6-24.2 43.05-21.35L43.05-21.35Q44.4-23.85 47.4-23.85L47.4-23.85Q50.1-23.85 51.6-22.68 53.1-21.5 53.1-18.35L53.1-18.35 53.1-5.35Q53.1-2.35 51.85-1.18 50.6 0 47.45 0L47.45 0Q44.15 0 43.1-1.85L43.1-1.85Q39.9 0.3 35.55 0.3ZM42.35-7.2L42.35-16.55Q41.5-18 40.15-18L40.15-18Q38.85-18 38.05-16.1 37.25-14.2 37.25-11.75L37.25-11.75Q37.25-9.45 38-7.65 38.75-5.85 40.1-5.85L40.1-5.85Q41.5-5.85 42.35-7.2L42.35-7.2ZM69.55-24.2L69.55-24.2Q74.2-24.2 77.3-22.3 80.4-20.4 80.4-18.15L80.4-18.15Q80.4-17.5 79.84-16.95 79.3-16.4 78.45-16.4L78.45-16.4Q77.7-16.4 76.8-16.93 75.9-17.45 75.09-18.05 74.3-18.65 73-19.15 71.7-19.65 70.25-19.65L70.25-19.65Q68.3-19.65 68.3-18.45L68.3-18.45Q68.3-17.6 69.3-17.1 70.3-16.6 72.22-16.05 74.15-15.5 75.15-15L75.15-15Q78.9-13.55 80.3-11.88 81.7-10.2 81.7-7.45L81.7-7.45Q81.7-6.1 80.95-4.78 80.2-3.45 78.7-2.27 77.2-1.1 74.62-0.38 72.05 0.35 68.75 0.35L68.75 0.35Q62.3 0.35 59.1-2.6L59.1-2.6Q57.55-4.05 57.55-5.6L57.55-5.6Q57.55-6.55 58.17-7.1 58.8-7.65 59.95-7.65L59.95-7.65Q61.1-7.65 63.45-6.53 65.8-5.4 67.8-5.4L67.8-5.4Q70.55-5.4 70.55-6.75L70.55-6.75Q70.55-7.45 69.09-7.88 67.65-8.3 65.3-8.9 62.95-9.5 61.55-10.4L61.55-10.4Q59.35-11.35 58.47-12.78 57.6-14.2 57.6-16.25L57.6-16.25Q57.6-19.75 60.92-21.98 64.25-24.2 69.55-24.2ZM98.69-7.1L98.69-7.1 96.89-7.1Q96.89-4.5 95.39-2.25 93.89 0 91.39 0L91.39 0Q88.59 0 87.27-1.58 85.94-3.15 85.94-7.15L85.94-7.15 85.94-27.7Q85.94-29.85 86.64-31.18 87.34-32.5 88.47-33.05 89.59-33.6 91.39-33.7L91.39-33.7Q94.49-33.7 95.54-31.63 96.59-29.55 96.59-24.45L96.59-24.45Q96.59-20.5 96.14-17.5L96.14-17.5Q96.49-16.4 98.39-16.4L98.39-16.4Q99.59-16.4 100.02-16.93 100.44-17.45 100.44-19.05L100.44-19.05Q100.44-21.4 101.67-22.45 102.89-23.5 105.84-23.5L105.84-23.5Q108.94-23.5 110.02-22.38 111.09-21.25 111.09-18.3L111.09-18.3Q111.09-15.2 109.24-13.5 107.39-11.8 105.09-11.8L105.09-11.8Q107.44-11.8 109.27-10.38 111.09-8.95 111.09-6.1L111.09-6.1Q111.09-2.3 110.07-1.15 109.04 0 105.84 0L105.84 0Q102.89 0 101.67-1.07 100.44-2.15 100.44-4.45L100.44-4.45Q100.44-5.6 100.24-6.18 100.04-6.75 99.72-6.93 99.39-7.1 98.69-7.1ZM140.29-24.2L140.29-24.2Q144.94-24.2 148.04-22.3 151.14-20.4 151.14-18.15L151.14-18.15Q151.14-17.5 150.59-16.95 150.04-16.4 149.19-16.4L149.19-16.4Q148.44-16.4 147.54-16.93 146.64-17.45 145.84-18.05 145.04-18.65 143.74-19.15 142.44-19.65 140.99-19.65L140.99-19.65Q139.04-19.65 139.04-18.45L139.04-18.45Q139.04-17.6 140.04-17.1 141.04-16.6 142.96-16.05 144.89-15.5 145.89-15L145.89-15Q149.64-13.55 151.04-11.88 152.44-10.2 152.44-7.45L152.44-7.45Q152.44-6.1 151.69-4.78 150.94-3.45 149.44-2.27 147.94-1.1 145.36-0.38 142.79 0.35 139.49 0.35L139.49 0.35Q133.04 0.35 129.84-2.6L129.84-2.6Q128.29-4.05 128.29-5.6L128.29-5.6Q128.29-6.55 128.91-7.1 129.54-7.65 130.69-7.65L130.69-7.65Q131.84-7.65 134.19-6.53 136.54-5.4 138.54-5.4L138.54-5.4Q141.29-5.4 141.29-6.75L141.29-6.75Q141.29-7.45 139.84-7.88 138.39-8.3 136.04-8.9 133.69-9.5 132.29-10.4L132.29-10.4Q130.09-11.35 129.21-12.78 128.34-14.2 128.34-16.25L128.34-16.25Q128.34-19.75 131.66-21.98 134.99-24.2 140.29-24.2ZM167.53-19.7L167.59-10.55Q167.59-7.7 169.78-7.7L169.78-7.7Q170.53-7.7 171.11-8.18 171.69-8.65 171.99-9.5 172.28-10.35 172.28-11.45L172.28-11.45 172.28-18.15Q172.28-19.85 172.89-21.13 173.49-22.4 174.64-23.1 175.79-23.8 177.34-23.8L177.34-23.8Q180.04-23.8 181.54-22.63 183.04-21.45 183.04-18.3L183.04-18.3 183.04-5.3Q183.04-2.25 181.79-1.1 180.54 0.05 177.39 0.05L177.39 0.05Q176.04 0.05 175.09-0.23 174.14-0.5 173.56-1.05 172.99-1.6 172.69-2.5L172.69-2.5Q170.64-1.15 168.36-0.6 166.09-0.05 163.28-0.05L163.28-0.05Q159.74-0.05 158.19-2.83 156.64-5.6 156.64-11.95L156.64-11.95Q156.64-15.1 156.78-17.07 156.94-19.05 157.26-20.48 157.59-21.9 158.26-22.6 158.94-23.3 159.86-23.6 160.78-23.9 162.28-23.9L162.28-23.9Q165.09-23.9 166.31-22.85 167.53-21.8 167.53-19.7L167.53-19.7ZM198.93-1.4L198.93 2.9Q198.93 6.95 197.58 8.68 196.23 10.4 193.43 10.4L193.43 10.4Q190.63 10.4 189.33 8.83 188.03 7.25 188.03 3.25L188.03 3.25 187.93-17.85Q187.93-20.95 189.43-22.4 190.93-23.85 193.43-23.85L193.43-23.85Q195.38-23.85 196.58-23.38 197.78-22.9 198.38-21.5L198.38-21.5Q201.83-24.2 205.78-24.2L205.78-24.2Q209.78-24.2 212.33-20.85 214.88-17.5 214.88-11.75L214.88-11.75Q214.88-6.15 212.28-2.93 209.68 0.3 205.73 0.3L205.73 0.3Q201.93 0.3 198.93-1.4L198.93-1.4ZM198.93-16.55L198.93-7.25Q199.78-5.85 201.18-5.85L201.18-5.85Q202.53-5.85 203.28-7.65 204.03-9.45 204.03-11.75L204.03-11.75Q204.03-14.2 203.23-16.1 202.43-18 201.13-18L201.13-18Q199.78-18 198.93-16.55L198.93-16.55ZM232.68 0.3L232.68 0.3Q226.58 0.3 222.61-2.85 218.63-6 218.63-11.45L218.63-11.45Q218.63-17.35 222.56-20.78 226.48-24.2 232.68-24.2L232.68-24.2Q238.53-24.2 241.26-22.13 243.98-20.05 243.98-16.45L243.98-16.45Q243.98-15.75 243.81-15.1 243.63-14.45 243.26-13.83 242.88-13.2 242.26-12.68 241.63-12.15 240.83-11.73 240.03-11.3 238.93-11.08 237.83-10.85 236.58-10.85L236.58-10.85 229.53-10.8Q230.03-9.2 231.33-8.28 232.63-7.35 234.63-7.35L234.63-7.35Q236.78-7.35 239.03-7.9L239.03-7.9Q239.98-8.15 241.11-8.7 242.23-9.25 242.73-9.25L242.73-9.25Q243.58-9.25 244.06-8.75 244.53-8.25 244.53-7.5L244.53-7.5Q244.53-6.6 243.73-5.33 242.93-4.05 241.51-2.78 240.08-1.5 237.73-0.6 235.38 0.3 232.68 0.3ZM229.28-14L229.28-14Q232.73-14.05 233.03-14.05L233.03-14.05Q233.78-14.05 234.13-14.95L234.13-14.95Q234.38-15.6 234.38-16.75L234.38-16.75Q234.38-19.9 232.48-19.9L232.48-19.9Q231.78-19.9 231.11-19.15 230.43-18.4 229.93-17.03 229.43-15.65 229.28-14ZM259.43-15.4L259.43-5.35Q259.43-2.35 258.18-1.18 256.93 0 253.73 0L253.73 0Q250.78 0 249.73-1.38 248.68-2.75 248.68-5.9L248.68-5.9 248.68-18.2Q248.68-19.9 249.28-21.18 249.88-22.45 251.03-23.15 252.18-23.85 253.73-23.85L253.73-23.85Q257.53-23.85 258.73-21.65L258.73-21.65Q261.63-23.85 264.33-23.85L264.33-23.85Q269.58-23.85 269.58-18.85L269.58-18.85Q269.58-16.85 268.43-15.6 267.28-14.35 265.43-14.35L265.43-14.35Q264.33-14.35 263.65-14.8 262.98-15.25 262.4-15.7 261.83-16.15 261.08-16.15L261.08-16.15Q259.98-16.15 259.43-15.4L259.43-15.4ZM285.33-7.5L285.33-7.5Q286.78-7.5 287.18-8.33 287.58-9.15 287.58-11.35L287.58-11.35 287.63-19.4Q287.63-20.95 288.15-21.9 288.68-22.85 289.93-23.35 291.18-23.85 293.28-23.85L293.28-23.85Q294.63-23.85 295.48-23.55 296.33-23.25 296.98-22.58 297.63-21.9 297.93-20.53 298.23-19.15 298.38-17.23 298.53-15.3 298.53-12.35L298.53-12.35Q298.53-9.65 297.68-7.5 296.83-5.35 295.5-3.98 294.18-2.6 292.43-1.68 290.68-0.75 288.93-0.38 287.18 0 285.4 0 283.63 0 281.88-0.38 280.13-0.75 278.35-1.68 276.58-2.6 275.23-3.98 273.88-5.35 273.03-7.5 272.18-9.65 272.18-12.35L272.18-12.35Q272.18-17.25 272.63-19.63 273.08-22 274.15-22.93 275.23-23.85 277.43-23.85L277.43-23.85Q280.53-23.85 281.83-22.78 283.13-21.7 283.13-19.4L283.13-19.4 283.18-11.4Q283.18-10.6 283.18-10.23 283.18-9.85 283.23-9.3 283.28-8.75 283.43-8.5 283.58-8.25 283.8-7.98 284.03-7.7 284.4-7.6 284.78-7.5 285.33-7.5ZM302.97-30.8L302.97-30.8Q302.97-32.45 304.4-33.52 305.82-34.6 308.42-34.6L308.42-34.6Q313.87-34.6 313.87-30.8L313.87-30.8Q313.87-28.7 312.5-27.85 311.12-27 308.42-27L308.42-27Q306.07-27 304.52-27.9 302.97-28.8 302.97-30.8ZM313.82-18.35L313.82-5.35Q313.82-2.35 312.57-1.18 311.32 0 308.17 0L308.17 0Q305.22 0 304.15-1.38 303.07-2.75 303.07-5.9L303.07-5.9 303.07-18.2Q303.07-20.75 304.45-22.3 305.82-23.85 308.12-23.85L308.12-23.85Q310.82-23.85 312.32-22.68 313.82-21.5 313.82-18.35L313.82-18.35ZM330.12-24.2L330.12-24.2Q334.77-24.2 337.87-22.3 340.97-20.4 340.97-18.15L340.97-18.15Q340.97-17.5 340.42-16.95 339.87-16.4 339.02-16.4L339.02-16.4Q338.27-16.4 337.37-16.93 336.47-17.45 335.67-18.05 334.87-18.65 333.57-19.15 332.27-19.65 330.82-19.65L330.82-19.65Q328.87-19.65 328.87-18.45L328.87-18.45Q328.87-17.6 329.87-17.1 330.87-16.6 332.8-16.05 334.72-15.5 335.72-15L335.72-15Q339.47-13.55 340.87-11.88 342.27-10.2 342.27-7.45L342.27-7.45Q342.27-6.1 341.52-4.78 340.77-3.45 339.27-2.27 337.77-1.1 335.2-0.38 332.62 0.35 329.32 0.35L329.32 0.35Q322.87 0.35 319.67-2.6L319.67-2.6Q318.12-4.05 318.12-5.6L318.12-5.6Q318.12-6.55 318.75-7.1 319.37-7.65 320.52-7.65L320.52-7.65Q321.67-7.65 324.02-6.53 326.37-5.4 328.37-5.4L328.37-5.4Q331.12-5.4 331.12-6.75L331.12-6.75Q331.12-7.45 329.67-7.88 328.22-8.3 325.87-8.9 323.52-9.5 322.12-10.4L322.12-10.4Q319.92-11.35 319.05-12.78 318.17-14.2 318.17-16.25L318.17-16.25Q318.17-19.75 321.5-21.98 324.82-24.2 330.12-24.2ZM362.12-11.85L362.12-11.85Q362.12-14.45 361.47-16.43 360.82-18.4 359.57-18.4L359.57-18.4Q358.72-18.4 358.07-17.4 357.42-16.4 357.12-14.95 356.82-13.5 356.82-11.85L356.82-11.85Q356.82-9.3 357.52-7.38 358.22-5.45 359.52-5.45 360.82-5.45 361.47-7.35 362.12-9.25 362.12-11.85ZM359.52 0.35L359.52 0.35Q355.62 0.35 352.49-1.05 349.37-2.45 347.49-5.25 345.62-8.05 345.62-11.8L345.62-11.8Q345.62-17.5 349.52-20.85 353.42-24.2 359.52-24.2 365.62-24.2 369.47-20.85 373.32-17.5 373.32-11.8L373.32-11.8Q373.32-6.15 369.39-2.9 365.47 0.35 359.52 0.35ZM388.27-15.4L388.27-5.35Q388.27-2.35 387.02-1.18 385.77 0 382.57 0L382.57 0Q379.62 0 378.57-1.38 377.52-2.75 377.52-5.9L377.52-5.9 377.52-18.2Q377.52-19.9 378.12-21.18 378.72-22.45 379.87-23.15 381.02-23.85 382.57-23.85L382.57-23.85Q386.37-23.85 387.57-21.65L387.57-21.65Q390.47-23.85 393.17-23.85L393.17-23.85Q398.42-23.85 398.42-18.85L398.42-18.85Q398.42-16.85 397.27-15.6 396.12-14.35 394.27-14.35L394.27-14.35Q393.17-14.35 392.49-14.8 391.82-15.25 391.24-15.7 390.67-16.15 389.92-16.15L389.92-16.15Q388.82-16.15 388.27-15.4L388.27-15.4Z" opacity="1" transform="matrix(1,0,0,1,0,0)" fill="#ffffff" class="wordmark-text-0" data-fill-palette-color="primary" id="text-0"></path></svg></g></svg></g><g transform="matrix(1,0,0,1,0,55.40907965848129)"><svg viewBox="0 0 395.52 27.702836418587072" height="27.702836418587072" width="395.52"><g transform="matrix(1,0,0,1,0,0)"><svg width="395.52" viewBox="2.81 -34.52 695.0400000000001 48.68000000000001" height="27.702836418587072" data-palette-color="#ffffff"><path d="M2.81-11.33L2.81-11.33Q2.81-13.92 3.76-16.26 4.71-18.6 6.62-20.39 8.52-22.17 11.35-23.23 14.18-24.29 17.92-24.29L17.92-24.29Q21.44-24.29 24.19-23.35 26.95-22.41 28.88-20.63 30.81-18.85 31.82-16.27 32.84-13.7 32.84-10.4L32.84-10.4 8.15-10.4Q8.37-8.64 9.29-7.28 10.21-5.91 11.62-4.97 13.04-4.03 14.83-3.54 16.63-3.05 18.58-3.05L18.58-3.05Q20.17-3.05 21.81-3.31 23.46-3.56 24.93-4 26.39-4.44 27.54-4.99 28.69-5.54 29.3-6.13L29.3-6.13 30.22-6.13 32.52-3.64Q30-1.49 26.4-0.38 22.8 0.73 18.46 0.73L18.46 0.73Q14.67 0.73 11.76-0.2 8.84-1.12 6.85-2.76 4.86-4.39 3.83-6.59 2.81-8.79 2.81-11.33ZM10.5-8.69L34.5-8.69Q34.55-9.06 34.57-9.48 34.59-9.91 34.59-10.4L34.59-10.4Q34.59-12.48 34.17-14.37 33.74-16.26 32.92-17.88 32.1-19.51 30.91-20.85 29.71-22.19 28.2-23.14L28.2-23.14Q29.81-22.51 31.16-21.4 32.52-20.29 33.5-18.7 34.47-17.11 35.02-15.04 35.57-12.96 35.57-10.4L35.57-10.4Q35.57-10.21 35.56-9.91 35.55-9.62 35.52-9.25 35.5-8.89 35.46-8.51 35.42-8.13 35.38-7.76L35.38-7.76 12.3-7.76Q12.77-6.98 14.01-6.16 15.26-5.35 17.24-4.79L17.24-4.79Q16.02-4.79 14.95-5.08 13.89-5.37 13.02-5.88 12.16-6.4 11.51-7.12 10.86-7.84 10.5-8.69L10.5-8.69ZM8.3-13.45L27.2-13.45Q26.81-15.14 25.99-16.46 25.17-17.77 23.97-18.66 22.78-19.56 21.24-20.03 19.7-20.51 17.87-20.51L17.87-20.51Q15.89-20.51 14.27-19.98 12.65-19.46 11.43-18.52 10.21-17.58 9.41-16.28 8.62-14.99 8.3-13.45L8.3-13.45ZM11.65-14.5L10.52-14.5Q11.43-16.5 13.37-17.65 15.31-18.8 17.87-18.8L17.87-18.8Q18.92-18.8 19.91-18.63 20.9-18.46 21.74-18.1 22.58-17.75 23.22-17.24 23.85-16.72 24.22-16.06L24.22-16.06Q22.83-16.99 21.24-17.43 19.65-17.87 17.82-17.87L17.82-17.87Q15.7-17.87 14.09-16.99 12.48-16.11 11.65-14.5L11.65-14.5ZM5.76-1.07L5.76-1.07Q8.13 0.61 11.27 1.54 14.4 2.47 18.46 2.47L18.46 2.47Q22.41 2.47 25.87 1.56 29.32 0.66 32.1-1.2L32.1-1.2 32.76-0.49Q29.61 1.64 26.14 2.51 22.66 3.39 18.85 3.39L18.85 3.39Q13.89 3.39 10.63 2.2 7.37 1 5.76-1.07ZM48.51-11.69L48.51-11.69Q48.51-13.96 49.46-16.21 50.41-18.46 52.28-20.25 54.15-22.05 56.91-23.17 59.67-24.29 63.25-24.29L63.25-24.29Q64.4-24.29 65.71-24.12 67.01-23.95 68.32-23.56 69.63-23.17 70.87-22.52 72.12-21.88 73.14-20.95L73.14-20.95 73.14-23.56 83.64-23.56 83.64-19.41 78.27-19.41 78.27-3.66 83.64-3.66 83.64 0 73.14 0 73.14-3.17Q72.19-2.22 70.98-1.49 69.77-0.76 68.42-0.27 67.06 0.22 65.61 0.48 64.16 0.73 62.72 0.73L62.72 0.73Q59.2 0.73 56.54-0.27 53.88-1.27 52.1-2.97 50.32-4.66 49.41-6.92 48.51-9.18 48.51-11.69ZM80.03-5.13L80.03-17.7 85.4-17.7 85.4-21.7 86.38-21.7 86.38-16.77 81-16.77 81-5.13 80.03-5.13ZM53.81-11.89L53.81-11.89Q53.81-9.86 54.53-8.23 55.25-6.59 56.49-5.44 57.74-4.3 59.45-3.66 61.16-3.03 63.13-3.03L63.13-3.03Q64.28-3.03 65.46-3.26 66.65-3.49 67.76-3.97 68.87-4.44 69.86-5.16 70.85-5.88 71.57-6.87 72.29-7.86 72.72-9.13 73.14-10.4 73.14-11.96L73.14-11.96Q73.14-13.7 72.34-15.25 71.53-16.8 70.18-17.97 68.82-19.14 67.01-19.82 65.21-20.51 63.21-20.51L63.21-20.51Q61.2-20.51 59.48-19.9 57.76-19.29 56.5-18.16 55.25-17.04 54.53-15.44 53.81-13.84 53.81-11.89ZM55.49-11.77L55.49-11.77Q55.49-13.31 56.06-14.59 56.64-15.87 57.66-16.81 58.69-17.75 60.11-18.27 61.52-18.8 63.21-18.8L63.21-18.8Q64.48-18.8 65.5-18.52 66.53-18.24 67.28-17.83 68.04-17.43 68.53-17 69.02-16.58 69.21-16.26L69.21-16.26Q67.89-16.99 66.5-17.43 65.11-17.87 63.21-17.87L63.21-17.87Q61.67-17.87 60.44-17.37 59.2-16.87 58.32-16.02 57.44-15.16 56.97-14.04 56.49-12.92 56.49-11.67L56.49-11.67Q56.49-10.5 56.76-9.47 57.03-8.45 57.63-7.58 58.23-6.71 59.19-5.99 60.15-5.27 61.52-4.74L61.52-4.74Q59.98-5 58.85-5.65 57.71-6.3 56.97-7.23 56.22-8.15 55.86-9.31 55.49-10.47 55.49-11.77ZM74.61 1.71L85.4 1.71 85.4-2.29 86.38-2.29 86.38 2.64 74.61 2.64 74.61 1.71ZM51.66-1.05L51.66-1.05Q52.66-0.24 53.93 0.4 55.2 1.05 56.64 1.5 58.08 1.95 59.63 2.2 61.18 2.44 62.74 2.44L62.74 2.44Q65.45 2.44 67.81 1.77 70.16 1.1 72-0.1L72-0.1 72 1.03Q70.16 2.12 67.76 2.75 65.35 3.37 62.77 3.37L62.77 3.37Q60.98 3.37 59.28 3.09 57.57 2.81 56.1 2.25 54.64 1.68 53.49 0.85 52.34 0.02 51.66-1.05ZM100.85 0L100.85-6.71 105.88-6.71Q106.54-5.71 107.76-4.96 108.98-4.2 110.56-3.71 112.13-3.22 114.01-2.98 115.89-2.73 117.87-2.73L117.87-2.73Q119.5-2.73 120.65-2.98 121.8-3.22 122.51-3.66 123.21-4.1 123.53-4.69 123.85-5.27 123.85-5.98L123.85-5.98Q123.85-7.47 121.47-8.53 119.09-9.59 113.94-10.16L113.94-10.16Q110.52-10.52 108.22-11.17 105.93-11.82 104.52-12.74 103.12-13.67 102.52-14.87 101.92-16.06 101.92-17.5L101.92-17.5Q101.92-18.75 102.71-19.97 103.49-21.19 105.09-22.16 106.69-23.12 109.09-23.71 111.5-24.29 114.74-24.29L114.74-24.29Q115.79-24.29 116.89-24.15 117.99-24 119.04-23.72 120.09-23.44 121.04-23.05 121.99-22.66 122.75-22.17L122.75-22.17 122.75-23.54 128-23.54 128-16.94 122.75-16.94Q122.48-17.7 121.63-18.38 120.77-19.07 119.6-19.58 118.43-20.09 117.11-20.4 115.79-20.7 114.62-20.7L114.62-20.7Q113.08-20.7 111.71-20.48 110.35-20.26 109.35-19.86 108.35-19.46 107.76-18.9 107.17-18.33 107.17-17.65L107.17-17.65Q107.17-17.02 107.63-16.5 108.08-15.99 109.14-15.55 110.2-15.11 111.97-14.73 113.74-14.36 116.38-14.04L116.38-14.04Q119.89-13.6 122.31-12.92 124.73-12.23 126.24-11.24 127.75-10.25 128.43-8.94 129.1-7.62 129.1-5.91L129.1-5.91Q129.1-4.66 128.34-3.48 127.58-2.29 126.13-1.35 124.68-0.42 122.57 0.16 120.46 0.73 117.72 0.73L117.72 0.73Q115.96 0.73 114.42 0.6 112.89 0.46 111.47 0.15 110.05-0.17 108.74-0.66 107.42-1.15 106.1-1.86L106.1-1.86 106.1 0 100.85 0ZM123.95-14.31L123.95-15.23 129.76-15.23 129.76-22.51 130.73-22.51 130.73-14.31 123.95-14.31ZM108.96-17.65L108.96-17.65Q109.03-17.97 109.54-18.24 110.05-18.51 110.85-18.71 111.64-18.92 112.61-19.04 113.57-19.17 114.55-19.17L114.55-19.17Q115.38-19.17 116.27-19.04 117.16-18.92 117.95-18.7 118.75-18.48 119.39-18.15 120.04-17.82 120.41-17.41L120.41-17.41Q119.84-17.65 119.06-17.81 118.28-17.97 117.46-18.07 116.65-18.16 115.87-18.21 115.08-18.26 114.55-18.26L114.55-18.26Q112.57-18.26 111.12-18.07 109.66-17.87 108.96-17.65ZM102.27-12.82L102.27-12.82Q102.95-11.94 103.9-11.25 104.85-10.57 106.2-10.03 107.54-9.5 109.32-9.12 111.1-8.74 113.42-8.47L113.42-8.47Q115.55-8.23 117.11-7.95 118.67-7.67 119.72-7.32 120.77-6.98 121.36-6.56 121.94-6.13 122.12-5.59L122.12-5.59Q121.6-5.93 120.94-6.19 120.28-6.45 119.26-6.67 118.23-6.88 116.73-7.1 115.23-7.32 113.01-7.59L113.01-7.59Q108.42-8.13 105.76-9.34 103.1-10.55 102.27-12.82ZM102.05 1.71L107.86 1.71 107.86 0.68Q108.54 1 109.59 1.31 110.64 1.61 111.95 1.87 113.25 2.12 114.72 2.28 116.18 2.44 117.7 2.44L117.7 2.44Q120.72 2.44 123.17 1.77 125.61 1.1 127.32-0.04 129.02-1.17 129.94-2.67 130.86-4.17 130.86-5.83L130.86-5.83Q130.86-6.49 130.78-7.06 130.71-7.62 130.53-8.13 130.34-8.64 130.04-9.16 129.73-9.67 129.27-10.23L129.27-10.23Q131.83-8.72 131.83-5.83L131.83-5.83Q131.83-3.88 130.83-2.2 129.83-0.51 127.99 0.72 126.14 1.95 123.53 2.66 120.92 3.37 117.67 3.37L117.67 3.37Q116.48 3.37 115.25 3.26 114.03 3.15 112.89 2.95 111.74 2.76 110.71 2.49 109.69 2.22 108.88 1.88L108.88 1.88 108.88 2.69 102.05 2.69 102.05 1.71ZM152.29 7.86L158.49 7.86 162.23 0.9 148.6-19.9 143.38-19.9 143.38-23.56 160.05-23.56 160.05-19.9 154.88-19.9 164.96-4.17 173.41-19.9 167.47-19.9 167.47-23.56 183.73-23.56 183.73-19.9 178.78-19.9 161.64 11.52 152.29 11.52 152.29 7.86ZM153.75 13.23L162.91 13.23 180.07-18.19 185.49-18.19 185.49-22.19 186.47-22.19 186.47-17.26 180.63-17.26 163.52 14.16 153.75 14.16 153.75 13.23ZM165.16-7.5L158.32-18.19 161.81-18.19 161.81-22.19 162.79-22.19 162.79-17.26 160.05-17.26 165.69-8.47 165.16-7.5ZM168.67-17.26L168.67-18.19 171.21-18.19 170.72-17.26 168.67-17.26ZM144.84-17.26L144.84-18.19 148.38-18.19 148.99-17.26 144.84-17.26ZM221.82 0L221.82-6.71 226.85-6.71Q227.5-5.71 228.73-4.96 229.95-4.2 231.52-3.71 233.1-3.22 234.98-2.98 236.86-2.73 238.83-2.73L238.83-2.73Q240.47-2.73 241.62-2.98 242.76-3.22 243.47-3.66 244.18-4.1 244.5-4.69 244.81-5.27 244.81-5.98L244.81-5.98Q244.81-7.47 242.43-8.53 240.05-9.59 234.9-10.16L234.9-10.16Q231.48-10.52 229.19-11.17 226.89-11.82 225.49-12.74 224.09-13.67 223.49-14.87 222.89-16.06 222.89-17.5L222.89-17.5Q222.89-18.75 223.67-19.97 224.45-21.19 226.05-22.16 227.65-23.12 230.06-23.71 232.46-24.29 235.71-24.29L235.71-24.29Q236.76-24.29 237.86-24.15 238.96-24 240-23.72 241.05-23.44 242.01-23.05 242.96-22.66 243.72-22.17L243.72-22.17 243.72-23.54 248.96-23.54 248.96-16.94 243.72-16.94Q243.45-17.7 242.59-18.38 241.74-19.07 240.57-19.58 239.39-20.09 238.08-20.4 236.76-20.7 235.59-20.7L235.59-20.7Q234.05-20.7 232.68-20.48 231.31-20.26 230.31-19.86 229.31-19.46 228.73-18.9 228.14-18.33 228.14-17.65L228.14-17.65Q228.14-17.02 228.59-16.5 229.04-15.99 230.11-15.55 231.17-15.11 232.94-14.73 234.71-14.36 237.34-14.04L237.34-14.04Q240.86-13.6 243.28-12.92 245.69-12.23 247.21-11.24 248.72-10.25 249.39-8.94 250.06-7.62 250.06-5.91L250.06-5.91Q250.06-4.66 249.31-3.48 248.55-2.29 247.1-1.35 245.64-0.42 243.53 0.16 241.42 0.73 238.69 0.73L238.69 0.73Q236.93 0.73 235.39 0.6 233.85 0.46 232.44 0.15 231.02-0.17 229.7-0.66 228.38-1.15 227.07-1.86L227.07-1.86 227.07 0 221.82 0ZM244.91-14.31L244.91-15.23 250.72-15.23 250.72-22.51 251.7-22.51 251.7-14.31 244.91-14.31ZM229.92-17.65L229.92-17.65Q230-17.97 230.51-18.24 231.02-18.51 231.81-18.71 232.61-18.92 233.57-19.04 234.54-19.17 235.51-19.17L235.51-19.17Q236.34-19.17 237.23-19.04 238.13-18.92 238.92-18.7 239.71-18.48 240.36-18.15 241.01-17.82 241.37-17.41L241.37-17.41Q240.81-17.65 240.03-17.81 239.25-17.97 238.43-18.07 237.61-18.16 236.83-18.21 236.05-18.26 235.51-18.26L235.51-18.26Q233.54-18.26 232.08-18.07 230.63-17.87 229.92-17.65ZM223.23-12.82L223.23-12.82Q223.92-11.94 224.87-11.25 225.82-10.57 227.16-10.03 228.51-9.5 230.29-9.12 232.07-8.74 234.39-8.47L234.39-8.47Q236.51-8.23 238.08-7.95 239.64-7.67 240.69-7.32 241.74-6.98 242.32-6.56 242.91-6.13 243.08-5.59L243.08-5.59Q242.57-5.93 241.91-6.19 241.25-6.45 240.22-6.67 239.2-6.88 237.7-7.1 236.2-7.32 233.97-7.59L233.97-7.59Q229.38-8.13 226.72-9.34 224.06-10.55 223.23-12.82ZM223.01 1.71L228.82 1.71 228.82 0.68Q229.51 1 230.56 1.31 231.61 1.61 232.91 1.87 234.22 2.12 235.68 2.28 237.15 2.44 238.66 2.44L238.66 2.44Q241.69 2.44 244.13 1.77 246.57 1.1 248.28-0.04 249.99-1.17 250.91-2.67 251.82-4.17 251.82-5.83L251.82-5.83Q251.82-6.49 251.75-7.06 251.67-7.62 251.49-8.13 251.31-8.64 251-9.16 250.7-9.67 250.23-10.23L250.23-10.23Q252.8-8.72 252.8-5.83L252.8-5.83Q252.8-3.88 251.8-2.2 250.8-0.51 248.95 0.72 247.11 1.95 244.5 2.66 241.88 3.37 238.64 3.37L238.64 3.37Q237.44 3.37 236.22 3.26 235 3.15 233.85 2.95 232.71 2.76 231.68 2.49 230.65 2.22 229.85 1.88L229.85 1.88 229.85 2.69 223.01 2.69 223.01 1.71ZM269.45-5.47L269.45-5.47Q268.96-6.71 268.73-8.18 268.49-9.64 268.49-11.4L268.49-11.4 268.49-19.41 264.34-19.41 264.34-23.56 273.74-23.56 273.74-13.48Q273.74-11.5 273.93-9.95 274.11-8.4 274.45-7.52L274.45-7.52Q274.89-6.4 275.6-5.62 276.31-4.83 277.2-4.35 278.09-3.86 279.13-3.64 280.16-3.42 281.29-3.42L281.29-3.42Q282.48-3.42 283.77-3.86 285.05-4.3 286.24-5.08 287.44-5.86 288.48-6.93 289.51-8.01 290.22-9.25L290.22-9.25 290.22-19.41 284.85-19.41 284.85-23.56 295.47-23.56 295.47-3.66 299.62-3.66 299.62 0 290.22 0 290.22-3.71Q289.44-2.76 288.33-1.95 287.22-1.15 285.86-0.55 284.51 0.05 282.95 0.39 281.38 0.73 279.7 0.73L279.7 0.73Q276.06 0.73 273.39-0.79 270.72-2.32 269.45-5.47ZM297.18-5.13L297.18-22.31 298.16-22.31 298.16-5.13 297.18-5.13ZM275.5-12.01L275.5-22.31 276.48-22.31 276.48-12.28Q276.48-10.38 276.84-9.11 277.21-7.84 277.82-7.03 278.43-6.23 279.21-5.79 279.99-5.35 280.82-5.1L280.82-5.1Q278.26-5.13 276.88-6.8 275.5-8.47 275.5-12.01L275.5-12.01ZM286.32-16.77L286.32-17.7 289.2-17.7 289.2-16.77 286.32-16.77ZM265.81-16.77L265.81-17.7 267.47-17.7 267.47-16.77 265.81-16.77ZM291.69 1.71L301.38 1.71 301.38-2.29 302.36-2.29 302.36 2.64 291.69 2.64 291.69 1.71ZM269.71-1.64L269.71-1.64Q271.62 0.42 274.01 1.43 276.4 2.44 279.72 2.44L279.72 2.44Q282.68 2.44 285.01 1.67 287.34 0.9 289.25-0.42L289.25-0.42 289.25 0.71Q287.1 2.1 284.78 2.73 282.46 3.37 279.75 3.37L279.75 3.37Q276.06 3.37 273.47 2.09 270.89 0.81 269.71-1.64ZM316.39 7.86L320.54 7.86 320.54-19.41 315.17-19.41 315.17-23.56 325.79-23.56 325.79-20.31Q327.62-22.17 330.24-23.23 332.85-24.29 335.92-24.29L335.92-24.29Q339.29-24.29 341.91-23.28 344.52-22.27 346.3-20.59 348.08-18.92 349.01-16.77 349.94-14.62 349.94-12.33L349.94-12.33Q349.94-9.35 348.92-7.02 347.91-4.69 346.08-3.08 344.25-1.46 341.71-0.61 339.17 0.24 336.09 0.24L336.09 0.24Q332.92 0.24 330.27-0.72 327.62-1.68 325.79-3.52L325.79-3.52 325.79 7.86 332.38 7.86 332.38 11.52 316.39 11.52 316.39 7.86ZM327.43 6.64L327.43-0.05Q329.19 0.93 331.49 1.44 333.8 1.95 336.14 1.95L336.14 1.95Q339.37 1.95 342.2 1.04 345.03 0.12 347.14-1.67 349.25-3.47 350.47-6.14 351.7-8.81 351.7-12.33L351.7-12.33Q351.7-13.84 351.26-15.44 350.82-17.04 350.01-18.54 349.21-20.04 348.03-21.36 346.86-22.68 345.4-23.63L345.4-23.63Q347.23-22.8 348.61-21.5 349.99-20.19 350.9-18.65 351.82-17.11 352.28-15.47 352.75-13.82 352.75-12.33L352.75-12.33Q352.75-8.89 351.6-6.08 350.45-3.27 348.29-1.28 346.13 0.71 343.04 1.79 339.95 2.88 336.07 2.88L336.07 2.88Q335.09 2.88 334.07 2.77 333.04 2.66 332.04 2.47 331.04 2.27 330.1 2 329.16 1.73 328.4 1.39L328.4 1.39 328.4 6.64 327.43 6.64ZM325.79-11.84L325.79-11.84Q325.79-9.89 326.61-8.35 327.43-6.81 328.84-5.74 330.26-4.66 332.15-4.09 334.04-3.52 336.22-3.52L336.22-3.52Q338.15-3.52 339.7-4.13 341.25-4.74 342.34-5.86 343.44-6.98 344.04-8.58 344.64-10.18 344.64-12.13L344.64-12.13Q344.64-13.99 343.94-15.54 343.25-17.09 342.03-18.19 340.81-19.29 339.16-19.9 337.51-20.51 335.61-20.51L335.61-20.51Q333.53-20.51 331.74-19.9 329.94-19.29 328.62-18.15 327.31-17.02 326.55-15.42 325.79-13.82 325.79-11.84ZM327.55-11.87L327.55-11.87Q327.55-13.26 328.12-14.53 328.7-15.8 329.75-16.75 330.8-17.7 332.26-18.26 333.73-18.82 335.53-18.82L335.53-18.82Q337.46-18.82 338.95-18.15 340.44-17.48 341.22-16.38L341.22-16.38Q339.76-17.31 338.35-17.59 336.95-17.87 335.53-17.87L335.53-17.87Q333.95-17.87 332.66-17.37 331.38-16.87 330.47-16.05 329.55-15.23 329.06-14.16 328.58-13.09 328.58-11.94L328.58-11.94Q328.58-9.72 329.7-8.11 330.82-6.49 333.34-5.32L333.34-5.32Q332.04-5.59 330.98-6.16 329.92-6.74 329.15-7.58 328.38-8.42 327.96-9.5 327.55-10.57 327.55-11.87ZM316.64-16.77L316.64-17.7 319.52-17.7 319.52-16.77 316.64-16.77ZM317.86 13.23L334.14 13.23 334.14 9.23 335.12 9.23 335.12 14.16 317.86 14.16 317.86 13.23ZM365.49-11.33L365.49-11.33Q365.49-13.92 366.44-16.26 367.39-18.6 369.3-20.39 371.2-22.17 374.03-23.23 376.86-24.29 380.6-24.29L380.6-24.29Q384.12-24.29 386.87-23.35 389.63-22.41 391.56-20.63 393.49-18.85 394.5-16.27 395.52-13.7 395.52-10.4L395.52-10.4 370.83-10.4Q371.05-8.64 371.97-7.28 372.88-5.91 374.3-4.97 375.72-4.03 377.51-3.54 379.31-3.05 381.26-3.05L381.26-3.05Q382.85-3.05 384.49-3.31 386.14-3.56 387.61-4 389.07-4.44 390.22-4.99 391.37-5.54 391.98-6.13L391.98-6.13 392.9-6.13 395.2-3.64Q392.68-1.49 389.08-0.38 385.48 0.73 381.14 0.73L381.14 0.73Q377.35 0.73 374.44-0.2 371.52-1.12 369.53-2.76 367.54-4.39 366.51-6.59 365.49-8.79 365.49-11.33ZM373.18-8.69L397.18-8.69Q397.23-9.06 397.25-9.48 397.27-9.91 397.27-10.4L397.27-10.4Q397.27-12.48 396.85-14.37 396.42-16.26 395.6-17.88 394.78-19.51 393.59-20.85 392.39-22.19 390.88-23.14L390.88-23.14Q392.49-22.51 393.84-21.4 395.2-20.29 396.18-18.7 397.15-17.11 397.7-15.04 398.25-12.96 398.25-10.4L398.25-10.4Q398.25-10.21 398.24-9.91 398.23-9.62 398.2-9.25 398.18-8.89 398.14-8.51 398.1-8.13 398.06-7.76L398.06-7.76 374.98-7.76Q375.45-6.98 376.69-6.16 377.94-5.35 379.92-4.79L379.92-4.79Q378.7-4.79 377.63-5.08 376.57-5.37 375.7-5.88 374.84-6.4 374.19-7.12 373.54-7.84 373.18-8.69L373.18-8.69ZM370.98-13.45L389.88-13.45Q389.49-15.14 388.67-16.46 387.85-17.77 386.65-18.66 385.46-19.56 383.92-20.03 382.38-20.51 380.55-20.51L380.55-20.51Q378.57-20.51 376.95-19.98 375.33-19.46 374.11-18.52 372.88-17.58 372.09-16.28 371.3-14.99 370.98-13.45L370.98-13.45ZM374.33-14.5L373.2-14.5Q374.11-16.5 376.05-17.65 377.99-18.8 380.55-18.8L380.55-18.8Q381.6-18.8 382.59-18.63 383.58-18.46 384.42-18.1 385.26-17.75 385.9-17.24 386.53-16.72 386.9-16.06L386.9-16.06Q385.51-16.99 383.92-17.43 382.33-17.87 380.5-17.87L380.5-17.87Q378.38-17.87 376.77-16.99 375.16-16.11 374.33-14.5L374.33-14.5ZM368.44-1.07L368.44-1.07Q370.81 0.61 373.95 1.54 377.08 2.47 381.14 2.47L381.14 2.47Q385.09 2.47 388.55 1.56 392 0.66 394.78-1.2L394.78-1.2 395.44-0.49Q392.29 1.64 388.82 2.51 385.34 3.39 381.53 3.39L381.53 3.39Q376.57 3.39 373.31 2.2 370.05 1 368.44-1.07ZM411.92 0L411.92-3.66 417.29-3.66 417.29-19.41 411.92-19.41 411.92-23.56 422.54-23.56 422.54-19.48Q423.3-20.46 424.36-21.34 425.42-22.22 426.76-22.88 428.11-23.54 429.69-23.91 431.28-24.29 433.09-24.29L433.09-24.29Q433.63-24.29 434.43-24.26 435.24-24.22 435.97-24.1L435.97-24.1 435.97-19.31Q435.11-19.51 434.28-19.58 433.45-19.65 432.67-19.65L432.67-19.65Q430.72-19.65 428.97-19.03 427.23-18.41 425.86-17.22 424.49-16.04 423.62-14.33 422.74-12.62 422.54-10.42L422.54-10.42 422.54-3.66 431.33-3.66 431.33 0 411.92 0ZM424.25-5.13L424.25-8.23Q424.25-10.52 424.84-12.33 425.42-14.14 426.51-15.38 427.59-16.63 429.16-17.29 430.72-17.94 432.67-17.94L432.67-17.94Q433.09-17.94 433.72-17.88 434.36-17.82 435.05-17.7 435.75-17.58 436.46-17.4 437.17-17.21 437.73-16.97L437.73-16.97 437.73-22.73 438.7-22.73 438.7-15.75Q438.02-16.04 437.23-16.27 436.43-16.5 435.61-16.67 434.8-16.85 434.04-16.93 433.28-17.02 432.67-17.02L432.67-17.02Q430.89-17.02 429.51-16.43 428.13-15.84 427.18-14.75 426.23-13.65 425.73-12.06 425.23-10.47 425.23-8.47L425.23-8.47 425.23-5.13 424.25-5.13ZM413.39-16.77L413.39-17.7 416.27-17.7 416.27-16.77 413.39-16.77ZM413.39 1.71L433.09 1.71 433.09-2.29 434.06-2.29 434.06 2.64 413.39 2.64 413.39 1.71ZM466.22 0L454.23-19.9 448.96-19.9 448.96-23.56 465.7-23.56 465.7-19.9 460.45-19.9 469.76-4 478.72-19.9 473.13-19.9 473.13-23.56 489.38-23.56 489.38-19.9 484.36-19.9 472.56 0 466.22 0ZM467.93 1.71L473.74 1.71 485.53-18.19 491.14-18.19 491.14-22.19 492.12-22.19 492.12-17.26 486.16-17.26 474.37 2.64 468.29 2.64 467.93 1.71ZM470.12-6.98L463.77-18.19 467.93-18.19 467.46-22.19 468.44-22.19 468.44-17.26 465.48-17.26 470.68-7.91 470.12-6.98ZM474.32-17.26L474.32-18.19 476.52-18.19 475.96-17.26 474.32-17.26ZM450.42-17.26L450.42-18.19 453.96-18.19 454.52-17.26 450.42-17.26ZM508.35-29.64L508.35-34.52 514.33-34.52 514.33-29.64 508.35-29.64ZM509.82-27L509.82-27.93 516.09-27.93 516.09-33.15 517.07-33.15 517.07-27 509.82-27ZM503.23 0L503.23-3.66 509.82-3.66 509.09-19.41 503.23-19.41 503.23-23.56 514.33-23.56 514.33-3.66 519.95-3.66 519.95 0 503.23 0ZM516.04-5.13L516.04-22.31 517.02-22.31 517.02-5.13 516.04-5.13ZM504.69-16.77L504.69-17.7 508.06-17.7 508.06-16.77 504.69-16.77ZM504.69 1.71L521.71 1.71 521.71-2.29 522.68-2.29 522.68 2.64 504.69 2.64 504.69 1.71ZM534.72 0L534.72-6.71 539.75-6.71Q540.41-5.71 541.63-4.96 542.85-4.2 544.42-3.71 546-3.22 547.88-2.98 549.76-2.73 551.73-2.73L551.73-2.73Q553.37-2.73 554.52-2.98 555.67-3.22 556.37-3.66 557.08-4.1 557.4-4.69 557.72-5.27 557.72-5.98L557.72-5.98Q557.72-7.47 555.34-8.53 552.96-9.59 547.8-10.16L547.8-10.16Q544.39-10.52 542.09-11.17 539.8-11.82 538.39-12.74 536.99-13.67 536.39-14.87 535.79-16.06 535.79-17.5L535.79-17.5Q535.79-18.75 536.57-19.97 537.35-21.19 538.95-22.16 540.55-23.12 542.96-23.71 545.36-24.29 548.61-24.29L548.61-24.29Q549.66-24.29 550.76-24.15 551.86-24 552.91-23.72 553.96-23.44 554.91-23.05 555.86-22.66 556.62-22.17L556.62-22.17 556.62-23.54 561.87-23.54 561.87-16.94 556.62-16.94Q556.35-17.7 555.49-18.38 554.64-19.07 553.47-19.58 552.3-20.09 550.98-20.4 549.66-20.7 548.49-20.7L548.49-20.7Q546.95-20.7 545.58-20.48 544.22-20.26 543.21-19.86 542.21-19.46 541.63-18.9 541.04-18.33 541.04-17.65L541.04-17.65Q541.04-17.02 541.49-16.5 541.94-15.99 543.01-15.55 544.07-15.11 545.84-14.73 547.61-14.36 550.25-14.04L550.25-14.04Q553.76-13.6 556.18-12.92 558.59-12.23 560.11-11.24 561.62-10.25 562.29-8.94 562.97-7.62 562.97-5.91L562.97-5.91Q562.97-4.66 562.21-3.48 561.45-2.29 560-1.35 558.55-0.42 556.43 0.16 554.32 0.73 551.59 0.73L551.59 0.73Q549.83 0.73 548.29 0.6 546.75 0.46 545.34 0.15 543.92-0.17 542.6-0.66 541.29-1.15 539.97-1.86L539.97-1.86 539.97 0 534.72 0ZM557.81-14.31L557.81-15.23 563.62-15.23 563.62-22.51 564.6-22.51 564.6-14.31 557.81-14.31ZM542.82-17.65L542.82-17.65Q542.9-17.97 543.41-18.24 543.92-18.51 544.72-18.71 545.51-18.92 546.47-19.04 547.44-19.17 548.41-19.17L548.41-19.17Q549.24-19.17 550.14-19.04 551.03-18.92 551.82-18.7 552.61-18.48 553.26-18.15 553.91-17.82 554.27-17.41L554.27-17.41Q553.71-17.65 552.93-17.81 552.15-17.97 551.33-18.07 550.51-18.16 549.73-18.21 548.95-18.26 548.41-18.26L548.41-18.26Q546.44-18.26 544.98-18.07 543.53-17.87 542.82-17.65ZM536.13-12.82L536.13-12.82Q536.82-11.94 537.77-11.25 538.72-10.57 540.06-10.03 541.41-9.5 543.19-9.12 544.97-8.74 547.29-8.47L547.29-8.47Q549.42-8.23 550.98-7.95 552.54-7.67 553.59-7.32 554.64-6.98 555.23-6.56 555.81-6.13 555.98-5.59L555.98-5.59Q555.47-5.93 554.81-6.19 554.15-6.45 553.13-6.67 552.1-6.88 550.6-7.1 549.1-7.32 546.88-7.59L546.88-7.59Q542.29-8.13 539.63-9.34 536.96-10.55 536.13-12.82ZM535.91 1.71L541.72 1.71 541.72 0.68Q542.41 1 543.46 1.31 544.51 1.61 545.81 1.87 547.12 2.12 548.59 2.28 550.05 2.44 551.56 2.44L551.56 2.44Q554.59 2.44 557.03 1.77 559.47 1.1 561.18-0.04 562.89-1.17 563.81-2.67 564.72-4.17 564.72-5.83L564.72-5.83Q564.72-6.49 564.65-7.06 564.58-7.62 564.39-8.13 564.21-8.64 563.91-9.16 563.6-9.67 563.14-10.23L563.14-10.23Q565.7-8.72 565.7-5.83L565.7-5.83Q565.7-3.88 564.7-2.2 563.7-0.51 561.85 0.72 560.01 1.95 557.4 2.66 554.79 3.37 551.54 3.37L551.54 3.37Q550.34 3.37 549.12 3.26 547.9 3.15 546.75 2.95 545.61 2.76 544.58 2.49 543.56 2.22 542.75 1.88L542.75 1.88 542.75 2.69 535.91 2.69 535.91 1.71ZM584.45-29.64L584.45-34.52 590.43-34.52 590.43-29.64 584.45-29.64ZM585.91-27L585.91-27.93 592.19-27.93 592.19-33.15 593.16-33.15 593.16-27 585.91-27ZM579.32 0L579.32-3.66 585.91-3.66 585.18-19.41 579.32-19.41 579.32-23.56 590.43-23.56 590.43-3.66 596.04-3.66 596.04 0 579.32 0ZM592.14-5.13L592.14-22.31 593.11-22.31 593.11-5.13 592.14-5.13ZM580.79-16.77L580.79-17.7 584.15-17.7 584.15-16.77 580.79-16.77ZM580.79 1.71L597.8 1.71 597.8-2.29 598.78-2.29 598.78 2.64 580.79 2.64 580.79 1.71ZM609.76-11.4L609.76-11.4Q609.76-14.06 610.91-16.42 612.06-18.77 614.12-20.52 616.18-22.27 619.06-23.28 621.95-24.29 625.39-24.29L625.39-24.29Q629-24.29 631.85-23.33 634.69-22.36 636.66-20.65 638.62-18.95 639.66-16.6 640.7-14.26 640.7-11.5L640.7-11.5Q640.7-8.84 639.56-6.59 638.43-4.35 636.34-2.72 634.25-1.1 631.33-0.18 628.42 0.73 624.83 0.73L624.83 0.73Q621.43 0.73 618.66-0.28 615.89-1.29 613.91-2.98 611.94-4.66 610.85-6.85 609.76-9.03 609.76-11.4ZM613.6-1.12L613.6-1.12Q615.96 0.59 618.83 1.51 621.7 2.44 625.31 2.44L625.31 2.44Q628.68 2.44 631.78 1.53 634.89 0.61 637.25-1.17 639.62-2.95 641.04-5.55 642.45-8.15 642.45-11.5L642.45-11.5Q642.45-13.13 642-14.81 641.55-16.48 640.73-18.02 639.91-19.56 638.74-20.89 637.57-22.22 636.13-23.14L636.13-23.14Q637.77-22.41 639.12-21.22 640.48-20.02 641.43-18.49 642.38-16.97 642.91-15.19 643.43-13.4 643.43-11.5L643.43-11.5Q643.43-9.11 642.75-7.07 642.06-5.03 640.85-3.38 639.65-1.73 637.97-0.46 636.3 0.81 634.3 1.65 632.3 2.49 630.04 2.93 627.78 3.37 625.44 3.37L625.44 3.37Q623.48 3.37 621.7 3.06 619.92 2.76 618.39 2.19 616.87 1.61 615.65 0.78 614.43-0.05 613.6-1.12ZM615.18-11.5L615.18-11.5Q615.18-9.62 615.9-8.07 616.62-6.52 617.94-5.41 619.26-4.3 621.1-3.69 622.95-3.08 625.19-3.08L625.19-3.08Q627.46-3.08 629.32-3.7 631.17-4.32 632.52-5.43 633.86-6.54 634.59-8.09 635.32-9.64 635.32-11.5L635.32-11.5Q635.32-13.33 634.59-14.95 633.86-16.58 632.54-17.81 631.22-19.04 629.38-19.76 627.54-20.48 625.31-20.48L625.31-20.48Q623-20.48 621.13-19.79 619.26-19.09 617.94-17.88 616.62-16.67 615.9-15.04 615.18-13.4 615.18-11.5ZM616.89-11.4L616.89-11.4Q616.89-12.94 617.5-14.29 618.11-15.65 619.22-16.64 620.33-17.63 621.88-18.2 623.43-18.77 625.31-18.77L625.31-18.77Q626.51-18.77 627.63-18.52 628.76-18.26 629.71-17.77 630.66-17.29 631.39-16.59 632.13-15.89 632.57-15.01L632.57-15.01Q630.95-16.48 629.21-17.16 627.46-17.85 625.27-17.85L625.27-17.85Q623.68-17.85 622.34-17.33 620.99-16.82 619.99-15.94 618.99-15.06 618.43-13.89 617.87-12.72 617.87-11.4L617.87-11.4Q617.87-10.3 618.14-9.35 618.41-8.4 619.05-7.58 619.7-6.76 620.77-6.1 621.85-5.44 623.46-4.93L623.46-4.93Q621.99-5.03 620.79-5.55 619.58-6.08 618.71-6.93 617.84-7.79 617.37-8.94 616.89-10.08 616.89-11.4ZM657.64 0L657.64-3.66 663.01-3.66 663.01-19.41 657.64-19.41 657.64-23.56 668.26-23.56 668.26-19.87Q669.01-20.8 670.08-21.61 671.14-22.41 672.46-23.01 673.77-23.61 675.31-23.95 676.85-24.29 678.54-24.29L678.54-24.29Q681.07-24.29 683.15-23.57 685.22-22.85 686.69-21.35 688.15-19.85 688.95-17.57 689.74-15.28 689.74-12.16L689.74-12.16 689.74-3.66 695.11-3.66 695.11 0 680.34 0 680.34-3.66 684.49-3.66 684.49-10.08Q684.49-12.06 684.31-13.61 684.13-15.16 683.78-16.04L683.78-16.04Q683.35-17.16 682.67-17.94 682-18.73 681.16-19.21 680.32-19.7 679.32-19.92 678.32-20.14 677.19-20.14L677.19-20.14Q676-20.14 674.71-19.7 673.43-19.26 672.22-18.47 671.02-17.68 669.98-16.6 668.94-15.53 668.26-14.28L668.26-14.28 668.26-3.66 672.41-3.66 672.41 0 657.64 0ZM691.5-5.13L691.5-11.99Q691.5-14.14 691.17-15.98 690.84-17.82 690.18-19.3 689.52-20.78 688.56-21.85 687.59-22.92 686.32-23.56L686.32-23.56Q687.98-23.14 689.16-22.16 690.33-21.17 691.06-19.65 691.79-18.14 692.13-16.16 692.48-14.18 692.48-11.82L692.48-11.82 692.48-5.13 691.5-5.13ZM670.01-5.13L670.01-13.67Q670.63-14.75 671.47-15.63 672.31-16.5 673.3-17.13 674.29-17.75 675.37-18.09 676.46-18.43 677.53-18.43L677.53-18.43Q679.22-18.43 680.27-17.8 681.32-17.16 681.81-16.19L681.81-16.19Q681.05-16.75 680.04-17.14 679.02-17.53 677.49-17.53L677.49-17.53Q676.53-17.53 675.56-17.18 674.58-16.82 673.7-16.24 672.82-15.65 672.11-14.89 671.41-14.14 670.99-13.35L670.99-13.35 670.99-5.13 670.01-5.13ZM659.1-16.77L659.1-17.7 661.98-17.7 661.98-16.77 659.1-16.77ZM681.81 1.71L696.87 1.71 696.87-2.29 697.85-2.29 697.85 2.64 681.81 2.64 681.81 1.71ZM659.1 1.71L674.17 1.71 674.17-2.29 675.14-2.29 675.14 2.64 659.1 2.64 659.1 1.71Z" opacity="1" transform="matrix(1,0,0,1,0,0)" fill="#ffffff" class="slogan-text-1" data-fill-palette-color="secondary" id="text-1"></path></svg></g></svg></g></svg></g></svg></g><g transform="matrix(1,0,0,1,161.22357816966795,0)"><svg viewBox="0 0 75.05044366066402 114.86066801850848" height="114.86066801850848" width="75.05044366066402"><g><svg xmlns="http://www.w3.org/2000/svg" data-name="Layer 1" viewBox="22.62166033874436 0.016118373330836343 83.67925890894273 128.06660572231254" x="0" y="0" width="75.05044366066402" height="114.86066801850848" class="icon-icon-0" data-fill-palette-color="accent" id="icon-0"><path d="M24.87 27.2a2 2 0 0 0 0 2.83L42.53 47.7a2 2 0 0 0 2.83-2.83L27.69 27.2A2 2 0 0 0 24.87 27.2Z" fill="#ffffff" data-fill-palette-color="accent"></path><path d="M81.95 36.95V12.28a2 2 0 1 0-4 0V36.95a2 2 0 0 0 4 0Z" fill="#ffffff" data-fill-palette-color="accent"></path><path d="M50.94 1.52a2 2 0 1 0-3.88 1l6 24a2 2 0 1 0 3.88-1Z" fill="#ffffff" data-fill-palette-color="accent"></path><path d="M24.57 72.8c6.28 9 6.23 13.06 6.19 17C30.46 118.44 50.31 127.29 62.1 128c0.9 0.05 1.77 0.08 2.64 0.08a38.56 38.56 0 0 0 29-12.63l6.55-7.22 0.11-0.13 3.25-3.59a9.06 9.06 0 0 0-4.5-15.26A8.14 8.14 0 0 0 92.2 79a8.38 8.38 0 0 0 0.5-2.8 9 9 0 0 0-7.24-8.85L96.31 56.46a9.05 9.05 0 1 0-13-12.59C71.42 56.56 56.64 71 50.81 73.37c-3.4 1.4-4.22 0.31-6.85-4a31.62 31.62 0 0 0-7.16-8.9c-3.46-2.81-7.53-2.89-10.9-0.22C22.09 63.26 21.54 68.44 24.57 72.8ZM97.22 93.06a5 5 0 0 1 3.57 1.48 5.09 5.09 0 0 1-0.07 7.22l-3.17 3.49a4.6 4.6 0 0 1-5.18-0.87l-0.18-0.19A4.63 4.63 0 0 1 91.81 98l5-5Zm-3-8.94a4.14 4.14 0 0 1 0.24 5.62 2 2 0 0 0-0.23 0.25l0 0-5.74 5.74a4.62 4.62 0 0 1-4.78-1l-0.24-0.24a4.67 4.67 0 0 1-0.28-6.16c0.8-0.62 4.15-3.27 5.93-4.8A4.17 4.17 0 0 1 94.2 84.12Zm-7-11.51a5 5 0 0 1 1.48 3.57 6.33 6.33 0 0 1-2.1 4.22c-1.22 1.06-3.85 3.17-5.79 4.69a4.8 4.8 0 0 1-4.73-1.24l-0.13-0.13a4.86 4.86 0 0 1 0-6.87l4.7-4.7A5 5 0 0 1 87.21 72.6ZM28.39 63.34c1.92-1.52 3.85-1.46 5.89 0.19a27.89 27.89 0 0 1 6.26 7.86A21.25 21.25 0 0 0 44 76.14a2 2 0 0 0 0.12 0.16c0.17 0.18 4 4.37 0.1 10.46a2 2 0 0 0 3.37 2.15 13 13 0 0 0 1.84-11 11.37 11.37 0 0 0 2.88-0.79c7.87-3.23 26.32-22.38 33.9-30.47a5 5 0 0 1 3.6-1.6 5.07 5.07 0 0 1 3.66 1.48 5.05 5.05 0 0 1 0 7.15L73.11 74a8.86 8.86 0 0 0 0 12.56l0.11 0.11a8.78 8.78 0 0 0 5.11 2.51 8.7 8.7 0 0 0 2.28 8.17l0.08 0.07 0.08 0.08A8.63 8.63 0 0 0 86.87 100a8.59 8.59 0 0 0 2.48 7l0.15 0.17a8.68 8.68 0 0 0 4.21 2.32l-3 3.31-0.08 0.09A35.08 35.08 0 0 1 62.34 124a31.27 31.27 0 0 1-14.44-5c0.31 0 0.63 0 0.95 0l0.85 0c5-0.32 9.57-3.35 13.65-9a2 2 0 0 0-3.25-2.33c-3.33 4.64-6.9 7.12-10.62 7.37-5.19 0.34-9.18-3.81-9.24-3.87a2 2 0 0 0-0.29-0.25c-3.13-4.94-5.28-11.72-5.18-21.09 0.06-5.29-0.42-10.07-6.91-19.35C26.35 68.36 25.94 65.3 28.39 63.34Z" fill="#ffffff" data-fill-palette-color="accent"></path><polygon points="59.53 40.78 55.11 41.42 58.31 44.54 57.55 48.94 61.5 46.86 65.45 48.94 64.69 44.54 67.89 41.42 63.47 40.78 61.5 36.78 59.53 40.78" fill="#ffffff" data-fill-palette-color="accent"></polygon><polygon points="65.96 16.73 67.31 19.77 68.91 16.84 72.22 16.5 69.93 14.08 70.63 10.82 67.62 12.25 64.73 10.58 65.16 13.89 62.68 16.12 65.96 16.73" fill="#ffffff" data-fill-palette-color="accent"></polygon><polygon points="39.35 15.39 36.94 13.1 36.58 16.41 33.65 18 36.69 19.36 37.3 22.64 39.53 20.16 42.84 20.6 41.17 17.71 42.61 14.71 39.35 15.39" fill="#ffffff" data-fill-palette-color="accent"></polygon></svg></g></svg></g><g></g></svg></g><defs></defs></svg><rect width="395.52" height="231.3570251526561" fill="none" stroke="none" visibility="hidden"></rect></g></svg></g></svg>