<svg data-v-423bf9ae="" xmlns="http://www.w3.org/2000/svg" viewBox="0 0 603 90" class="iconLeft"><!----><!----><!----><g data-v-423bf9ae="" id="f86c698a-8872-49a7-b9e0-42dc6e5289b7" fill="white" transform="matrix(4.294917583465576,0,0,4.294917583465576,109.7423095703125,5.12169075012207)"><path d="M5.43 11.38L6.09 13.24L6.09 13.24Q5.75 13.45 5.27 13.57L5.27 13.57L5.27 13.57Q4.79 13.68 4.24 13.68L4.24 13.68L4.24 13.68Q2.76 13.68 1.96 12.95L1.96 12.95L1.96 12.95Q1.16 12.22 1.16 10.78L1.16 10.78L1.16 8.23L0.06 8.23L0.06 6.24L1.16 6.24L1.16 4.27L3.82 4.27L3.82 6.24L5.56 6.24L5.56 8.23L3.82 8.23L3.82 10.75L3.82 10.75Q3.82 11.16 4.04 11.39L4.04 11.39L4.04 11.39Q4.26 11.62 4.62 11.62L4.62 11.62L4.62 11.62Q5.08 11.62 5.43 11.38L5.43 11.38ZM10.35 5.84L10.35 5.84Q12.24 5.84 13.23 6.70L13.23 6.70L13.23 6.70Q14.22 7.56 14.22 9.34L14.22 9.34L14.22 13.55L11.75 13.55L11.75 12.57L11.75 12.57Q11.17 13.68 9.51 13.68L9.51 13.68L9.51 13.68Q8.62 13.68 7.98 13.37L7.98 13.37L7.98 13.37Q7.34 13.06 7.01 12.54L7.01 12.54L7.01 12.54Q6.68 12.01 6.68 11.34L6.68 11.34L6.68 11.34Q6.68 10.26 7.50 9.67L7.50 9.67L7.50 9.67Q8.33 9.07 10.05 9.07L10.05 9.07L11.56 9.07L11.56 9.07Q11.49 7.87 9.95 7.87L9.95 7.87L9.95 7.87Q9.41 7.87 8.85 8.04L8.85 8.04L8.85 8.04Q8.29 8.22 7.90 8.53L7.90 8.53L7 6.72L7 6.72Q7.63 6.30 8.53 6.07L8.53 6.07L8.53 6.07Q9.44 5.84 10.35 5.84L10.35 5.84ZM10.25 12.00L10.25 12.00Q10.71 12.00 11.06 11.77L11.06 11.77L11.06 11.77Q11.41 11.55 11.56 11.12L11.56 11.12L11.56 10.46L10.42 10.46L10.42 10.46Q9.25 10.46 9.25 11.23L9.25 11.23L9.25 11.23Q9.25 11.58 9.52 11.79L9.52 11.79L9.52 11.79Q9.79 12.00 10.25 12.00L10.25 12.00ZM18.66 13.68L18.66 13.68Q17.71 13.68 16.79 13.46L16.79 13.46L16.79 13.46Q15.86 13.24 15.30 12.89L15.30 12.89L16.10 11.07L16.10 11.07Q16.62 11.40 17.33 11.58L17.33 11.58L17.33 11.58Q18.05 11.77 18.75 11.77L18.75 11.77L18.75 11.77Q19.39 11.77 19.66 11.64L19.66 11.64L19.66 11.64Q19.94 11.51 19.94 11.26L19.94 11.26L19.94 11.26Q19.94 11.00 19.61 10.90L19.61 10.90L19.61 10.90Q19.28 10.79 18.56 10.70L18.56 10.70L18.56 10.70Q17.65 10.58 17.02 10.40L17.02 10.40L17.02 10.40Q16.38 10.22 15.92 9.73L15.92 9.73L15.92 9.73Q15.46 9.24 15.46 8.36L15.46 8.36L15.46 8.36Q15.46 7.63 15.89 7.06L15.89 7.06L15.89 7.06Q16.32 6.50 17.16 6.17L17.16 6.17L17.16 6.17Q17.99 5.84 19.15 5.84L19.15 5.84L19.15 5.84Q19.98 5.84 20.79 6.01L20.79 6.01L20.79 6.01Q21.60 6.17 22.15 6.48L22.15 6.48L21.35 8.29L21.35 8.29Q20.34 7.73 19.17 7.73L19.17 7.73L19.17 7.73Q18.54 7.73 18.24 7.87L18.24 7.87L18.24 7.87Q17.95 8.02 17.95 8.26L17.95 8.26L17.95 8.26Q17.95 8.53 18.27 8.63L18.27 8.63L18.27 8.63Q18.59 8.74 19.33 8.85L19.33 8.85L19.33 8.85Q20.27 8.99 20.89 9.17L20.89 9.17L20.89 9.17Q21.50 9.35 21.96 9.83L21.96 9.83L21.96 9.83Q22.41 10.32 22.41 11.19L22.41 11.19L22.41 11.19Q22.41 11.90 21.98 12.47L21.98 12.47L21.98 12.47Q21.55 13.03 20.70 13.36L20.70 13.36L20.70 13.36Q19.85 13.68 18.66 13.68L18.66 13.68ZM29.13 13.55L27.01 10.89L26.22 11.69L26.22 13.55L23.56 13.55L23.56 3.16L26.22 3.16L26.22 8.61L28.94 5.96L32.09 5.96L28.94 9.21L32.35 13.55L29.13 13.55ZM40.00 13.68L40.00 13.68Q39.05 13.68 38.12 13.46L38.12 13.46L38.12 13.46Q37.20 13.24 36.64 12.89L36.64 12.89L37.44 11.07L37.44 11.07Q37.95 11.40 38.67 11.58L38.67 11.58L38.67 11.58Q39.38 11.77 40.08 11.77L40.08 11.77L40.08 11.77Q40.73 11.77 41.00 11.64L41.00 11.64L41.00 11.64Q41.27 11.51 41.27 11.26L41.27 11.26L41.27 11.26Q41.27 11.00 40.94 10.90L40.94 10.90L40.94 10.90Q40.61 10.79 39.90 10.70L39.90 10.70L39.90 10.70Q38.99 10.58 38.35 10.40L38.35 10.40L38.35 10.40Q37.72 10.22 37.25 9.73L37.25 9.73L37.25 9.73Q36.79 9.24 36.79 8.36L36.79 8.36L36.79 8.36Q36.79 7.63 37.23 7.06L37.23 7.06L37.23 7.06Q37.66 6.50 38.49 6.17L38.49 6.17L38.49 6.17Q39.33 5.84 40.49 5.84L40.49 5.84L40.49 5.84Q41.31 5.84 42.13 6.01L42.13 6.01L42.13 6.01Q42.94 6.17 43.48 6.48L43.48 6.48L42.69 8.29L42.69 8.29Q41.68 7.73 40.50 7.73L40.50 7.73L40.50 7.73Q39.87 7.73 39.58 7.87L39.58 7.87L39.58 7.87Q39.28 8.02 39.28 8.26L39.28 8.26L39.28 8.26Q39.28 8.53 39.61 8.63L39.61 8.63L39.61 8.63Q39.93 8.74 40.67 8.85L40.67 8.85L40.67 8.85Q41.61 8.99 42.22 9.17L42.22 9.17L42.22 9.17Q42.84 9.35 43.30 9.83L43.30 9.83L43.30 9.83Q43.75 10.32 43.75 11.19L43.75 11.19L43.75 11.19Q43.75 11.90 43.32 12.47L43.32 12.47L43.32 12.47Q42.88 13.03 42.04 13.36L42.04 13.36L42.04 13.36Q41.19 13.68 40.00 13.68L40.00 13.68ZM50.22 5.96L52.88 5.96L52.88 13.55L50.34 13.55L50.34 12.74L50.34 12.74Q49.92 13.20 49.34 13.44L49.34 13.44L49.34 13.44Q48.75 13.68 48.09 13.68L48.09 13.68L48.09 13.68Q46.62 13.68 45.75 12.81L45.75 12.81L45.75 12.81Q44.87 11.94 44.87 10.21L44.87 10.21L44.87 5.96L47.53 5.96L47.53 9.77L47.53 9.77Q47.53 10.63 47.85 11.02L47.85 11.02L47.85 11.02Q48.17 11.41 48.79 11.41L48.79 11.41L48.79 11.41Q49.42 11.41 49.82 10.97L49.82 10.97L49.82 10.97Q50.22 10.53 50.22 9.62L50.22 9.62L50.22 5.96ZM59.36 5.84L59.36 5.84Q60.40 5.84 61.24 6.32L61.24 6.32L61.24 6.32Q62.09 6.80 62.59 7.69L62.59 7.69L62.59 7.69Q63.08 8.58 63.08 9.76L63.08 9.76L63.08 9.76Q63.08 10.93 62.59 11.82L62.59 11.82L62.59 11.82Q62.09 12.71 61.24 13.20L61.24 13.20L61.24 13.20Q60.40 13.68 59.36 13.68L59.36 13.68L59.36 13.68Q58.03 13.68 57.25 12.88L57.25 12.88L57.25 16.27L54.59 16.27L54.59 5.96L57.12 5.96L57.12 6.72L57.12 6.72Q57.86 5.84 59.36 5.84L59.36 5.84ZM58.80 11.56L58.80 11.56Q59.50 11.56 59.95 11.08L59.95 11.08L59.95 11.08Q60.40 10.60 60.40 9.76L60.40 9.76L60.40 9.76Q60.40 8.92 59.95 8.43L59.95 8.43L59.95 8.43Q59.50 7.95 58.80 7.95L58.80 7.95L58.80 7.95Q58.10 7.95 57.65 8.43L57.65 8.43L57.65 8.43Q57.20 8.92 57.20 9.76L57.20 9.76L57.20 9.76Q57.20 10.60 57.65 11.08L57.65 11.08L57.65 11.08Q58.10 11.56 58.80 11.56L58.80 11.56ZM72.07 9.77L72.07 9.77Q72.07 9.80 72.03 10.43L72.03 10.43L66.51 10.43L66.51 10.43Q66.68 11.02 67.17 11.33L67.17 11.33L67.17 11.33Q67.65 11.65 68.38 11.65L68.38 11.65L68.38 11.65Q68.92 11.65 69.32 11.49L69.32 11.49L69.32 11.49Q69.72 11.34 70.13 10.99L70.13 10.99L71.53 12.45L71.53 12.45Q70.42 13.68 68.29 13.68L68.29 13.68L68.29 13.68Q66.96 13.68 65.95 13.17L65.95 13.17L65.95 13.17Q64.95 12.67 64.39 11.77L64.39 11.77L64.39 11.77Q63.84 10.88 63.84 9.74L63.84 9.74L63.84 9.74Q63.84 8.62 64.38 7.73L64.38 7.73L64.38 7.73Q64.92 6.85 65.87 6.34L65.87 6.34L65.87 6.34Q66.82 5.84 68.01 5.84L68.01 5.84L68.01 5.84Q69.15 5.84 70.07 6.31L70.07 6.31L70.07 6.31Q70.99 6.78 71.53 7.66L71.53 7.66L71.53 7.66Q72.07 8.55 72.07 9.77L72.07 9.77ZM68.03 7.73L68.03 7.73Q67.41 7.73 67.00 8.08L67.00 8.08L67.00 8.08Q66.58 8.43 66.47 9.03L66.47 9.03L69.58 9.03L69.58 9.03Q69.47 8.43 69.06 8.08L69.06 8.08L69.06 8.08Q68.64 7.73 68.03 7.73L68.03 7.73ZM75.84 6.87L75.84 6.87Q76.24 6.36 76.90 6.10L76.90 6.10L76.90 6.10Q77.55 5.84 78.39 5.84L78.39 5.84L78.39 8.23L78.39 8.23Q78.02 8.19 77.78 8.19L77.78 8.19L77.78 8.19Q76.93 8.19 76.45 8.65L76.45 8.65L76.45 8.65Q75.96 9.11 75.96 10.07L75.96 10.07L75.96 13.55L73.30 13.55L73.30 5.96L75.84 5.96L75.84 6.87ZM84.97 5.96L87.50 5.96L84.36 13.55L81.62 13.55L78.50 5.96L81.23 5.96L83.05 10.60L84.97 5.96ZM88.19 13.55L88.19 5.96L90.85 5.96L90.85 13.55L88.19 13.55ZM89.52 5.12L89.52 5.12Q88.79 5.12 88.34 4.72L88.34 4.72L88.34 4.72Q87.89 4.31 87.89 3.71L87.89 3.71L87.89 3.71Q87.89 3.11 88.34 2.70L88.34 2.70L88.34 2.70Q88.79 2.30 89.52 2.30L89.52 2.30L89.52 2.30Q90.24 2.30 90.69 2.68L90.69 2.68L90.69 2.68Q91.14 3.07 91.14 3.67L91.14 3.67L91.14 3.67Q91.14 4.30 90.69 4.71L90.69 4.71L90.69 4.71Q90.24 5.12 89.52 5.12L89.52 5.12ZM95.33 13.68L95.33 13.68Q94.37 13.68 93.45 13.46L93.45 13.46L93.45 13.46Q92.53 13.24 91.97 12.89L91.97 12.89L92.76 11.07L92.76 11.07Q93.28 11.40 94.00 11.58L94.00 11.58L94.00 11.58Q94.71 11.77 95.41 11.77L95.41 11.77L95.41 11.77Q96.05 11.77 96.33 11.64L96.33 11.64L96.33 11.64Q96.60 11.51 96.60 11.26L96.60 11.26L96.60 11.26Q96.60 11.00 96.27 10.90L96.27 10.90L96.27 10.90Q95.94 10.79 95.23 10.70L95.23 10.70L95.23 10.70Q94.32 10.58 93.68 10.40L93.68 10.40L93.68 10.40Q93.04 10.22 92.58 9.73L92.58 9.73L92.58 9.73Q92.12 9.24 92.12 8.36L92.12 8.36L92.12 8.36Q92.12 7.63 92.55 7.06L92.55 7.06L92.55 7.06Q92.99 6.50 93.82 6.17L93.82 6.17L93.82 6.17Q94.65 5.84 95.82 5.84L95.82 5.84L95.82 5.84Q96.64 5.84 97.45 6.01L97.45 6.01L97.45 6.01Q98.27 6.17 98.81 6.48L98.81 6.48L98.01 8.29L98.01 8.29Q97.01 7.73 95.83 7.73L95.83 7.73L95.83 7.73Q95.20 7.73 94.91 7.87L94.91 7.87L94.91 7.87Q94.61 8.02 94.61 8.26L94.61 8.26L94.61 8.26Q94.61 8.53 94.93 8.63L94.93 8.63L94.93 8.63Q95.26 8.74 96.00 8.85L96.00 8.85L96.00 8.85Q96.94 8.99 97.55 9.17L97.55 9.17L97.55 9.17Q98.17 9.35 98.62 9.83L98.62 9.83L98.62 9.83Q99.08 10.32 99.08 11.19L99.08 11.19L99.08 11.19Q99.08 11.90 98.64 12.47L98.64 12.47L98.64 12.47Q98.21 13.03 97.36 13.36L97.36 13.36L97.36 13.36Q96.52 13.68 95.33 13.68L95.33 13.68ZM104.03 13.68L104.03 13.68Q102.82 13.68 101.84 13.17L101.84 13.17L101.84 13.17Q100.86 12.67 100.30 11.77L100.30 11.77L100.30 11.77Q99.75 10.88 99.75 9.74L99.75 9.74L99.75 9.74Q99.75 8.62 100.30 7.73L100.30 7.73L100.30 7.73Q100.86 6.83 101.83 6.33L101.83 6.33L101.83 6.33Q102.80 5.84 104.03 5.84L104.03 5.84L104.03 5.84Q105.27 5.84 106.25 6.33L106.25 6.33L106.25 6.33Q107.23 6.83 107.77 7.72L107.77 7.72L107.77 7.72Q108.32 8.61 108.32 9.74L108.32 9.74L108.32 9.74Q108.32 10.88 107.77 11.77L107.77 11.77L107.77 11.77Q107.23 12.67 106.25 13.17L106.25 13.17L106.25 13.17Q105.27 13.68 104.03 13.68L104.03 13.68ZM104.03 11.56L104.03 11.56Q104.73 11.56 105.18 11.08L105.18 11.08L105.18 11.08Q105.63 10.60 105.63 9.74L105.63 9.74L105.63 9.74Q105.63 8.90 105.18 8.43L105.18 8.43L105.18 8.43Q104.73 7.95 104.03 7.95L104.03 7.95L104.03 7.95Q103.33 7.95 102.89 8.43L102.89 8.43L102.89 8.43Q102.44 8.90 102.44 9.74L102.44 9.74L102.44 9.74Q102.44 10.60 102.89 11.08L102.89 11.08L102.89 11.08Q103.33 11.56 104.03 11.56L104.03 11.56ZM112.08 6.87L112.08 6.87Q112.49 6.36 113.14 6.10L113.14 6.10L113.14 6.10Q113.79 5.84 114.63 5.84L114.63 5.84L114.63 8.23L114.63 8.23Q114.27 8.19 114.03 8.19L114.03 8.19L114.03 8.19Q113.18 8.19 112.69 8.65L112.69 8.65L112.69 8.65Q112.21 9.11 112.21 10.07L112.21 10.07L112.21 13.55L109.55 13.55L109.55 5.96L112.08 5.96L112.08 6.87Z"></path></g><!----><g data-v-423bf9ae="" id="91b81270-0b3f-43b3-94d7-fb351eba2744" transform="matrix(2.8125,0,0,2.8125,0,0)" stroke="none" fill="white"><path d="M16 1c8.271 0 15 6.729 15 15s-6.729 15-15 15S1 24.271 1 16 7.729 1 16 1m0-1C7.163 0 0 7.163 0 16s7.163 16 16 16 16-7.163 16-16S24.837 0 16 0z"></path><path d="M16 7.045L24.955 16 16 24.955 7.045 16 16 7.045m0-1.414L5.631 16 16 26.369 26.369 16 16 5.631z"></path><path d="M16 12.538L19.462 16 16 19.462 12.538 16 16 12.538m0-1.414L11.124 16 16 20.876 20.876 16 16 11.124z"></path></g><!----></svg>